<svg xmlns="http://www.w3.org/2000/svg" viewBox="0 0 319.21 60"><defs><style>.cls-1{fill:#fff;}</style></defs><title>Asset 1</title><g id="Layer_2" data-name="Layer 2"><g id="Layer_1-2" data-name="Layer 1"><path class="cls-1" d="M30,3A27,27,0,1,1,3,30,27,27,0,0,1,30,3m0-3A30,30,0,1,0,60,30,30,30,0,0,0,30,0Z"/><path class="cls-1" d="M22.25,40.2V19.8h5.9a17.24,17.24,0,0,1,4.79.61,10.26,10.26,0,0,1,3.64,1.85,8,8,0,0,1,2.34,3.18,11.53,11.53,0,0,1,.81,4.49q0,4.94-3,7.61T28.51,40.2Zm3.77-3h2.7a7.19,7.19,0,0,0,5.32-1.83A7.25,7.25,0,0,0,35.87,30q0-3.76-1.88-5.47t-5.67-1.71H26Z"/><path class="cls-1" d="M85.38,30.2q0,5-2.85,7.67t-8,2.65H68.44V19.92h5.71a16.14,16.14,0,0,1,4.61.61,10,10,0,0,1,3.53,1.84,7.85,7.85,0,0,1,2.29,3.22A12.37,12.37,0,0,1,85.38,30.2Zm-2.58.07Q82.8,26,80.57,24t-6.49-2H70.85V38.42h3.63q4.07,0,6.19-2.05T82.8,30.27Z"/><path class="cls-1" d="M100.8,40.52,98.39,34H90.17l-2.49,6.53H85.23l7.91-20.64H95.6l7.67,20.64ZM97.61,32q-2.94-8.54-3.24-9.6L91,32Z"/><path class="cls-1" d="M116.32,19.92h2.58l-7.48,20.6h-2.51l-7.45-20.6H104L108.62,33q.89,2.55,1.55,4.8a49,49,0,0,1,1.56-4.85Q113.9,26.72,116.32,19.92Z"/><path class="cls-1" d="M122.63,40.52h-2.41V19.92h2.41Z"/><path class="cls-1" d="M143.43,30.2q0,5-2.85,7.67t-8,2.65h-6.11V19.92h5.71a16.14,16.14,0,0,1,4.61.61,10,10,0,0,1,3.53,1.84,7.85,7.85,0,0,1,2.29,3.22A12.37,12.37,0,0,1,143.43,30.2Zm-2.58.07q0-4.32-2.23-6.28t-6.49-2H128.9V38.42h3.63q4.07,0,6.19-2.05T140.85,30.27Z"/><path class="cls-1" d="M152.25,40.52V19.92h2.42V38.37h9.07l-.08,2.14Z"/><path class="cls-1" d="M184,30.23a13.59,13.59,0,0,1-.65,4.3,9.67,9.67,0,0,1-1.87,3.35,8.17,8.17,0,0,1-3.07,2.17,10.72,10.72,0,0,1-4.16.77,10.21,10.21,0,0,1-5.34-1.33,8.31,8.31,0,0,1-3.33-3.7,13.08,13.08,0,0,1-1.11-5.58,11.21,11.21,0,0,1,2.58-7.8,9.22,9.22,0,0,1,7.21-2.85,9.12,9.12,0,0,1,7.15,2.88A11.23,11.23,0,0,1,184,30.23Zm-17,0a9.66,9.66,0,0,0,1.82,6.23,7.53,7.53,0,0,0,10.76,0,9.74,9.74,0,0,0,1.8-6.24,9.78,9.78,0,0,0-1.82-6.31,6.47,6.47,0,0,0-5.34-2.24,6.57,6.57,0,0,0-5.38,2.24A9.64,9.64,0,0,0,167,30.23Z"/><path class="cls-1" d="M188.9,40.52h-2.46V19.68h6.71a11.09,11.09,0,0,1,2.77.32,7,7,0,0,1,2.2,1,4.37,4.37,0,0,1,1.49,1.75,5.85,5.85,0,0,1,.53,2.56,9.56,9.56,0,0,1-.22,2.17,5.6,5.6,0,0,1-.77,1.79,4.55,4.55,0,0,1-1.42,1.39,7.29,7.29,0,0,1-2.25.86,14.39,14.39,0,0,1-3.18.31q-1.43,0-3.4-.18Zm3.64-10.83a9,9,0,0,0,2.34-.26,4.49,4.49,0,0,0,1.5-.65,2.69,2.69,0,0,0,.82-1,3.91,3.91,0,0,0,.37-1.15,9.73,9.73,0,0,0,.07-1.26,3,3,0,0,0-1.19-2.6,5.55,5.55,0,0,0-3.24-.84h-4.3v7.76Z"/><path class="cls-1" d="M201.83,40.52V19.92h11.81l-.1,2.13h-9.3v6.74h8.84v2.1h-8.84v7.49h9.61l-.11,2.13Z"/><path class="cls-1" d="M215.38,40.52V38.62l11.2-16.56H215.78V19.92h13.87v1.8L218.39,38.37h11.36l-.08,2.14Z"/><path class="cls-1" d="M230.73,33.6v-2h7v2Z"/><path class="cls-1" d="M244,40.52l-6.21-20.6h2.52l5.1,17.73,5.1-17.35h2.72l4.94,17.37,5.14-17.74h2.52l-6.29,20.6h-2.63l-5-17.31-5.26,17.31Z"/><path class="cls-1" d="M282.94,40.52h-2.41V30.88H269.47v9.64h-2.41V19.92h2.41v8.84h11.06V19.92h2.41Z"/><path class="cls-1" d="M289.17,40.52h-2.41V19.92h2.41Z"/><path class="cls-1" d="M299.46,40.52H297V22.05H290.7V19.92h15.1v2.13h-6.34Z"/><path class="cls-1" d="M307.19,40.52V19.92H319l-.1,2.13h-9.3v6.74h8.84v2.1H309.6v7.49h9.61l-.11,2.13Z"/></g></g></svg>