<?xml version="1.0" encoding="utf-8"?>
<!-- Generator: Adobe Illustrator 21.0.0, SVG Export Plug-In . SVG Version: 6.00 Build 0)  -->
<svg version="1.1" id="Layer_1" xmlns="http://www.w3.org/2000/svg" xmlns:xlink="http://www.w3.org/1999/xlink" x="0px" y="0px"
	 viewBox="0 0 339.5 60" style="enable-background:new 0 0 339.5 60;" xml:space="preserve">
<style type="text/css">
	.st0{fill:#FFFFFF;}
</style>
<title>Asset 1</title>
<g id="Layer_2">
	<g id="Layer_1-2">
		<path class="st0" d="M30,3c14.9,0,27,12.1,27,27S44.9,57,30,57S3,44.9,3,30S15.1,3,30,3 M30,0C13.4,0,0,13.4,0,30s13.4,30,30,30
			s30-13.4,30-30S46.6,0,30,0z"/>
		<path class="st0" d="M22.2,40.2V19.8h5.9c1.6,0,3.2,0.2,4.8,0.6c1.3,0.4,2.6,1,3.6,1.9c1,0.8,1.8,1.9,2.3,3.2
			c0.6,1.4,0.8,3,0.8,4.5c0,3.3-1,5.8-3,7.6s-4.7,2.7-8.2,2.7H22.2z M26,37.2h2.7c1.9,0.1,3.9-0.5,5.3-1.8c1.3-1.5,2-3.4,1.8-5.4
			c0-2.5-0.6-4.3-1.9-5.5s-3.1-1.7-5.7-1.7H26L26,37.2z"/>
		<path class="st0" d="M94.4,30.2c0,3.3-0.9,5.9-2.8,7.7s-4.6,2.7-8,2.7h-6.1V19.9h5.7c1.6,0,3.1,0.2,4.6,0.6c1.3,0.4,2.5,1,3.5,1.8
			c1,0.9,1.8,2,2.3,3.2C94.1,27.1,94.4,28.6,94.4,30.2z M91.8,30.3c0-2.8-0.7-4.9-2.2-6.3c-1.5-1.3-3.7-2-6.5-2h-3.2v16.4h3.6
			c2.7,0,4.8-0.7,6.2-2C91.1,35,91.8,33,91.8,30.3z"/>
		<path class="st0" d="M109.8,40.5l-2.4-6.5h-8.2l-2.5,6.5h-2.4l7.9-20.6h2.5l7.7,20.6L109.8,40.5z M106.6,32c-2-5.7-3-8.9-3.2-9.6
			L100,32H106.6z"/>
		<path class="st0" d="M125.3,19.9h2.6l-7.5,20.6h-2.5l-7.4-20.6h2.5l4.6,13.1c0.6,1.7,1.1,3.3,1.6,4.8c0.4-1.6,1-3.3,1.6-4.8
			C122.2,28.8,123.7,24.5,125.3,19.9z"/>
		<path class="st0" d="M131.6,40.5h-2.4V19.9h2.4V40.5z"/>
		<path class="st0" d="M152.4,30.2c0,3.3-0.9,5.9-2.9,7.7s-4.6,2.7-8,2.7h-6.1V19.9h5.7c1.6,0,3.1,0.2,4.6,0.6
			c1.3,0.4,2.5,1,3.5,1.8c1,0.9,1.8,2,2.3,3.2C152.2,27.1,152.5,28.6,152.4,30.2z M149.9,30.3c0-2.9-0.7-5-2.2-6.3s-3.7-2-6.5-2
			h-3.2v16.4h3.6c2.7,0,4.8-0.7,6.2-2C149.1,35,149.9,33,149.9,30.3L149.9,30.3z"/>
		<path class="st0" d="M161.3,40.5V19.9h2.4v18.4h9.1l-0.1,2.1L161.3,40.5z"/>
		<path class="st0" d="M193,30.2c0,1.5-0.2,2.9-0.6,4.3c-0.4,1.2-1,2.4-1.9,3.3c-0.8,1-1.9,1.7-3.1,2.2c-1.3,0.5-2.7,0.8-4.2,0.8
			c-1.9,0.1-3.7-0.4-5.3-1.3c-1.5-0.9-2.6-2.2-3.3-3.7c-0.8-1.8-1.2-3.7-1.1-5.6c-0.2-2.8,0.8-5.6,2.6-7.8c1.9-2,4.5-3,7.2-2.9
			c2.7-0.1,5.3,0.9,7.1,2.9C192.2,24.6,193.2,27.4,193,30.2z M176,30.2c-0.1,2.2,0.5,4.4,1.8,6.2c2.9,3,7.7,3,10.6,0.1
			c0,0,0.1-0.1,0.1-0.1c1.3-1.8,1.9-4,1.8-6.2c0.1-2.3-0.5-4.5-1.8-6.3c-1.3-1.5-3.3-2.4-5.3-2.2c-2-0.1-4,0.7-5.4,2.2
			C176.5,25.7,175.9,28,176,30.2z"/>
		<path class="st0" d="M197.9,40.5h-2.5V19.7h6.7c0.9,0,1.9,0.1,2.8,0.3c0.8,0.2,1.5,0.5,2.2,1c0.6,0.4,1.2,1,1.5,1.8
			c0.4,0.8,0.5,1.7,0.5,2.6c0,0.7-0.1,1.5-0.2,2.2c-0.2,0.6-0.4,1.2-0.8,1.8c-0.4,0.6-0.9,1-1.4,1.4c-0.7,0.4-1.5,0.7-2.2,0.9
			c-1,0.2-2.1,0.3-3.2,0.3c-1,0-2.1-0.1-3.4-0.2L197.9,40.5z M201.5,29.7c0.8,0,1.6-0.1,2.3-0.3c0.5-0.1,1-0.3,1.5-0.6
			c0.4-0.3,0.6-0.6,0.8-1c0.2-0.4,0.3-0.7,0.4-1.1c0.1-0.4,0.1-0.8,0.1-1.3c0.1-1-0.4-2-1.2-2.6c-1-0.6-2.1-0.9-3.2-0.8h-4.3v7.8
			H201.5z"/>
		<path class="st0" d="M210.8,40.5V19.9h11.8l-0.1,2.1h-9.3v6.7h8.8v2.1h-8.8v7.5h9.6l-0.1,2.1L210.8,40.5z"/>
		<path class="st0" d="M224.4,40.5v-1.9l11.2-16.6h-10.8v-2.1h13.9v1.8l-11.3,16.6h11.4l-0.1,2.1L224.4,40.5z"/>
		<path class="st0" d="M239.7,33.6v-2h7v2H239.7z"/>
		<path class="st0" d="M253,40.5l-6.2-20.6h2.5l5.1,17.7l5.1-17.4h2.7l4.9,17.4l5.1-17.7h2.5l-6.3,20.6h-2.6l-5-17.3l-5.3,17.3
			L253,40.5z"/>
		<path class="st0" d="M291.9,40.5h-2.4v-9.6h-11.1v9.6h-2.4V19.9h2.4v8.8h11.1v-8.8h2.4V40.5z"/>
		<path class="st0" d="M298.2,40.5h-2.4V19.9h2.4V40.5z"/>
		<path class="st0" d="M308.5,40.5H306V22h-6.3v-2.1h15.1V22h-6.3L308.5,40.5z"/>
		<path class="st0" d="M316.2,40.5V19.9H328l-0.1,2.1h-9.3v6.7h8.8v2.1h-8.8v7.5h9.6l-0.1,2.1L316.2,40.5z"/>
	</g>
</g>
</svg>
